<svg xmlns="http://www.w3.org/2000/svg" width="400" height="150" viewBox="0 0 400 150">
  <g id="Group_2193" data-name="Group 2193" transform="translate(288 -4449)">
    <rect id="Rectangle_309" data-name="Rectangle 309" width="400" height="150" transform="translate(-288 4449)" fill="#fff" opacity="0"/>
    <g id="BM_2307_-_FINAL_BUSINESS_LINK_LOGO_copy_MAIN_LOGO_WITH_TAGLINE_08.09" data-name="BM 2307 - FINAL BUSINESS LINK LOGO copy_MAIN LOGO WITH TAGLINE 08.09" transform="translate(-433.73 4300.68)">
      <g id="Group_2191" data-name="Group 2191" transform="translate(195.73 195.32)">
        <path id="Path_1573" data-name="Path 1573" d="M195.73,226.946V195.812q2.409-.179,4.26-.268t3.39-.157c1.026-.043,2-.067,2.922-.067a20.417,20.417,0,0,1,6.267.781,6.144,6.144,0,0,1,3.412,2.476,8.164,8.164,0,0,1,1.071,4.416,8.433,8.433,0,0,1-1.226,4.639,6.427,6.427,0,0,1-3.5,2.677v.09a7.732,7.732,0,0,1,4.616,2.722,8.1,8.1,0,0,1,1.672,5.219,11.939,11.939,0,0,1-.646,4.148,6.225,6.225,0,0,1-2.074,2.832,9.435,9.435,0,0,1-3.747,1.6,26.183,26.183,0,0,1-5.575.513q-1.116,0-2.074-.022l-1.851-.043c-.594-.016-1.212-.038-1.851-.067s-1.376-.074-2.209-.135S196.8,227.034,195.73,226.946Zm3.925-17.351h8.386a5.538,5.538,0,0,0,2.832-.713,4.882,4.882,0,0,0,1.9-1.984,6.284,6.284,0,0,0,.668-2.965,5.944,5.944,0,0,0-.736-3.1,4.223,4.223,0,0,0-2.387-1.784,13.84,13.84,0,0,0-4.326-.558h-1.249q-.536,0-1.026.022t-1.048.045c-.373.016-.8.038-1.293.067s-1.064.074-1.717.135v10.835Zm0,14.363,2.252.155q.958.067,1.718.09c.5.016.965.029,1.383.045s.832.022,1.249.022a16.506,16.506,0,0,0,5-.6,4.581,4.581,0,0,0,2.632-1.941,6.791,6.791,0,0,0,.8-3.523,5.258,5.258,0,0,0-1.651-4.171,7.173,7.173,0,0,0-4.861-1.451h-8.519v11.375Z" transform="translate(-195.73 -195.32)" fill="#003a59"/>
        <path id="Path_1574" data-name="Path 1574" d="M351.48,219.721V197.91h3.791v21.856a7.663,7.663,0,0,0,.447,2.765,4.9,4.9,0,0,0,1.249,1.9,6.414,6.414,0,0,0,1.874,1.183,9.47,9.47,0,0,0,2.252.623,15.928,15.928,0,0,0,2.385.178,16.389,16.389,0,0,0,2.409-.178,8.241,8.241,0,0,0,2.229-.646,6.983,6.983,0,0,0,1.829-1.2,4.921,4.921,0,0,0,1.249-1.874,7.521,7.521,0,0,0,.447-2.742V197.91h3.791v21.811a11.842,11.842,0,0,1-.6,3.97,7.624,7.624,0,0,1-1.717,2.832,8.545,8.545,0,0,1-2.587,1.806,12.81,12.81,0,0,1-3.278.958,24.044,24.044,0,0,1-3.813.29,23.464,23.464,0,0,1-3.725-.29,13.15,13.15,0,0,1-3.3-.958,8.437,8.437,0,0,1-2.609-1.806,7.6,7.6,0,0,1-1.717-2.832A11.841,11.841,0,0,1,351.48,219.721Z" transform="translate(-324.583 -197.463)" fill="#003a59"/>
        <path id="Path_1575" data-name="Path 1575" d="M530.529,196.705l-.8,3.033q-.8-.267-1.829-.513c-.684-.162-1.4-.306-2.141-.423s-1.487-.207-2.229-.268-1.458-.09-2.141-.09a9.84,9.84,0,0,0-5.419,1.316,4.15,4.15,0,0,0-2.029,3.68,4.055,4.055,0,0,0,.446,1.917,5.168,5.168,0,0,0,1.449,1.629,11.646,11.646,0,0,0,2.677,1.471q1.673.692,4.081,1.494a27.705,27.705,0,0,1,4.371,1.718,13.771,13.771,0,0,1,2.944,1.962,6.226,6.226,0,0,1,1.673,2.364,8.118,8.118,0,0,1,.513,2.967,7.354,7.354,0,0,1-1.426,4.594,8.943,8.943,0,0,1-4.126,2.877,18.789,18.789,0,0,1-6.535,1q-1.3,0-2.742-.133t-2.944-.38q-1.495-.243-2.877-.58a18.739,18.739,0,0,1-2.409-.736l.891-3.033q1.026.357,2.319.693t2.677.579q1.381.246,2.742.357t2.52.111a14.109,14.109,0,0,0,4.348-.579,5.629,5.629,0,0,0,2.677-1.7,4.152,4.152,0,0,0,.915-2.722,3.822,3.822,0,0,0-.535-2.007,5.232,5.232,0,0,0-1.651-1.629,17.673,17.673,0,0,0-2.877-1.471q-1.761-.736-4.215-1.539a26.608,26.608,0,0,1-4.058-1.717,11.745,11.745,0,0,1-2.765-1.986,6.669,6.669,0,0,1-1.561-2.364,8.231,8.231,0,0,1-.49-2.944,7.472,7.472,0,0,1,.758-3.39,7.666,7.666,0,0,1,2.186-2.632,10.218,10.218,0,0,1,3.59-1.717,18.437,18.437,0,0,1,4.929-.6,28.074,28.074,0,0,1,3.278.2q1.717.2,3.233.513A22.942,22.942,0,0,1,530.529,196.705Z" transform="translate(-454.925 -195.32)" fill="#003a59"/>
        <path id="Path_1576" data-name="Path 1576" d="M668.9,229.133V197.91h3.88v31.223Z" transform="translate(-587.186 -197.463)" fill="#003a59"/>
        <path id="Path_1577" data-name="Path 1577" d="M727.53,228.5V197.14h3.658l16.46,25.291V197.273h3.523v31.266h-3.7l-16.415-25.067v25.022H727.53Z" transform="translate(-635.691 -196.826)" fill="#003a59"/>
        <path id="Path_1578" data-name="Path 1578" d="M900.58,229.133V197.91h19.848v3.435H904.549v9.814h14.809v3.39H904.549V225.7h16.682v3.435H900.58Z" transform="translate(-778.856 -197.463)" fill="#003a59"/>
        <path id="Path_1579" data-name="Path 1579" d="M1054.569,196.705l-.8,3.033q-.8-.267-1.829-.513c-.684-.162-1.4-.306-2.141-.423s-1.487-.207-2.229-.268-1.458-.09-2.141-.09a9.84,9.84,0,0,0-5.419,1.316,4.15,4.15,0,0,0-2.029,3.68,4.055,4.055,0,0,0,.446,1.917,5.167,5.167,0,0,0,1.449,1.629,11.646,11.646,0,0,0,2.677,1.471q1.673.692,4.081,1.494a27.7,27.7,0,0,1,4.371,1.718,13.771,13.771,0,0,1,2.944,1.962,6.224,6.224,0,0,1,1.673,2.364,8.116,8.116,0,0,1,.513,2.967,7.354,7.354,0,0,1-1.426,4.594,8.944,8.944,0,0,1-4.126,2.877,18.789,18.789,0,0,1-6.535,1q-1.3,0-2.742-.133t-2.944-.38q-1.495-.243-2.877-.58a18.745,18.745,0,0,1-2.409-.736l.891-3.033q1.026.357,2.319.693t2.677.579q1.381.246,2.742.357t2.52.111a14.11,14.11,0,0,0,4.349-.579,5.629,5.629,0,0,0,2.677-1.7,4.152,4.152,0,0,0,.915-2.722,3.822,3.822,0,0,0-.535-2.007,5.232,5.232,0,0,0-1.651-1.629,17.674,17.674,0,0,0-2.877-1.471q-1.761-.736-4.215-1.539a26.607,26.607,0,0,1-4.058-1.717,11.745,11.745,0,0,1-2.765-1.986,6.669,6.669,0,0,1-1.561-2.364,8.231,8.231,0,0,1-.49-2.944,7.471,7.471,0,0,1,.758-3.39,7.667,7.667,0,0,1,2.186-2.632,10.217,10.217,0,0,1,3.59-1.717,18.437,18.437,0,0,1,4.929-.6,28.072,28.072,0,0,1,3.278.2q1.718.2,3.233.513A22.95,22.95,0,0,1,1054.569,196.705Z" transform="translate(-888.466 -195.32)" fill="#003a59"/>
        <path id="Path_1580" data-name="Path 1580" d="M1198.7,196.705l-.8,3.033q-.8-.267-1.829-.513c-.684-.162-1.4-.306-2.141-.423s-1.487-.207-2.229-.268-1.458-.09-2.141-.09a9.84,9.84,0,0,0-5.419,1.316,4.15,4.15,0,0,0-2.029,3.68,4.055,4.055,0,0,0,.446,1.917,5.168,5.168,0,0,0,1.449,1.629,11.651,11.651,0,0,0,2.677,1.471q1.674.692,4.081,1.494a27.709,27.709,0,0,1,4.371,1.718,13.771,13.771,0,0,1,2.944,1.962,6.224,6.224,0,0,1,1.673,2.364,8.118,8.118,0,0,1,.513,2.967,7.354,7.354,0,0,1-1.427,4.594,8.943,8.943,0,0,1-4.126,2.877,18.79,18.79,0,0,1-6.535,1q-1.3,0-2.742-.133t-2.944-.38q-1.495-.243-2.877-.58a18.739,18.739,0,0,1-2.409-.736l.891-3.033q1.026.357,2.319.693t2.677.579q1.381.246,2.742.357t2.52.111a14.11,14.11,0,0,0,4.349-.579,5.629,5.629,0,0,0,2.677-1.7,4.152,4.152,0,0,0,.915-2.722,3.823,3.823,0,0,0-.535-2.007,5.231,5.231,0,0,0-1.651-1.629,17.672,17.672,0,0,0-2.877-1.471q-1.761-.736-4.215-1.539a26.614,26.614,0,0,1-4.058-1.717,11.744,11.744,0,0,1-2.765-1.986,6.669,6.669,0,0,1-1.561-2.364,8.231,8.231,0,0,1-.49-2.944,7.472,7.472,0,0,1,.758-3.39,7.666,7.666,0,0,1,2.186-2.632,10.217,10.217,0,0,1,3.59-1.717,18.436,18.436,0,0,1,4.929-.6,28.075,28.075,0,0,1,3.278.2q1.717.2,3.233.513A22.946,22.946,0,0,1,1198.7,196.705Z" transform="translate(-1007.705 -195.32)" fill="#003a59"/>
      </g>
      <path id="Path_1581" data-name="Path 1581" d="M1388.229,217.148a6.854,6.854,0,0,0,1.653,4.913,4.669,4.669,0,0,0,3.26,1.52h9.826v5.575H1393.1a12.986,12.986,0,0,1-6.566-1.872,11.252,11.252,0,0,1-4.782-9.517V197.92h6.478v19.228Z" transform="translate(-981.201 -2.151)" fill="#003a59"/>
      <path id="Path_1582" data-name="Path 1582" d="M1529.23,197.92h6.873v31.19l-6.785.045-.088-21.608Z" transform="translate(-1103.212 -2.151)" fill="#003a59"/>
      <path id="Path_1583" data-name="Path 1583" d="M1605.308,196.232v5.815h-.007v.411a6.316,6.316,0,0,0-4.136,5.36v.641l.007.553v.024l.062,18.7h-.51c-.218,0-2.561.012-7.046.043l-.019-19.718a11.467,11.467,0,0,1,2.269-7.1,11.992,11.992,0,0,1,3.67-3.072,14.658,14.658,0,0,1,5.7-1.667h.007Z" transform="translate(-1156.515 -0.753)" fill="#003a59"/>
      <path id="Path_1584" data-name="Path 1584" d="M1805.089,219.619v7.754c-.205.031-.413.054-.6.069s-.382.022-.565.022a11.735,11.735,0,0,1-2.736-.337,11.206,11.206,0,0,1-2.773-1.123,18.864,18.864,0,0,1-2.872-2.04l-9.505-8.251v11.3h-7.624v-31.22h7.624v10.683l1.787,1.52.618.527c.313-.252.634-.52.955-.794.5-.435,1.015-.886,1.535-1.368.366-.344.734-.7,1.107-1.055a29.016,29.016,0,0,0,2.628-2.912,39.832,39.832,0,0,0,2.376-3.362,35.679,35.679,0,0,0,1.995-3.682l6,2.874a31.559,31.559,0,0,1-2.307,4.775,29.054,29.054,0,0,1-3.072,4.217,36.3,36.3,0,0,1-3.476,3.461c-.076.069-.161.145-.245.214-.794.68-1.62,1.321-2.468,1.926l1.345,1.147,2.421,2.062c.864.718,1.642,1.314,2.33,1.8a12.426,12.426,0,0,0,1.888,1.1,11.652,11.652,0,0,0,1.566.58,5.18,5.18,0,0,0,1.345.2h.359A.852.852,0,0,0,1805.089,219.619Z" transform="translate(-1309.359 -0.025)" fill="#003a59"/>
      <path id="Path_1585" data-name="Path 1585" d="M1697.393,207.753v20h-7.443V208.475h-.019v-.069a6.324,6.324,0,0,0-4.184-5.944v-.447h-.007V196.25h.007a15.5,15.5,0,0,1,5.279,1.4,12.177,12.177,0,0,1,1.2.653A10.864,10.864,0,0,1,1697.393,207.753Z" transform="translate(-1232.693 -0.769)" fill="#00a9a5"/>
      <g id="Group_2192" data-name="Group 2192" transform="translate(195.992 236.67)">
        <path id="Path_1586" data-name="Path 1586" d="M200.785,438.1H197.25V436.55h8.792V438.1h-3.52v9.206h-1.737Z" transform="translate(-197.25 -436.241)" fill="#003a59"/>
        <path id="Path_1587" data-name="Path 1587" d="M257.484,436.55v4.3a2.865,2.865,0,0,1,2.459-1.23c2.136,0,3.121,1.43,3.121,3.6v4.089H261.48v-4.074c0-1.43-.737-2.136-1.907-2.136a2.133,2.133,0,0,0-2.09,2.259v3.95H255.9V436.55Z" transform="translate(-245.771 -436.241)" fill="#003a59"/>
        <path id="Path_1588" data-name="Path 1588" d="M308.186,458.408a2.251,2.251,0,0,0,2.475,1.907,3.176,3.176,0,0,0,2.2-.815l1.029,1a4.527,4.527,0,0,1-3.259,1.292,3.981,3.981,0,1,1-.109-7.961c2.444,0,4.1,1.49,3.811,4.58h-6.146Zm4.626-1.338a1.978,1.978,0,0,0-2.243-1.829,2.251,2.251,0,0,0-2.352,1.829Z" transform="translate(-287.666 -450.537)" fill="#003a59"/>
        <path id="Path_1589" data-name="Path 1589" d="M388.25,458.03a3.92,3.92,0,1,1-3.936-3.95A3.816,3.816,0,0,1,388.25,458.03Zm-6.257,0a2.332,2.332,0,1,0,4.658,0,2.381,2.381,0,0,0-2.337-2.49A2.332,2.332,0,0,0,381.994,458.03Z" transform="translate(-348.779 -450.744)" fill="#003a59"/>
        <path id="Path_1590" data-name="Path 1590" d="M441.259,461.952v-4.058a1.96,1.96,0,0,0-2.045-2.183,2.152,2.152,0,0,0-2.121,2.274v3.965H435.51v-7.593h1.445l.092,1.107a3.293,3.293,0,0,1,2.551-1.214c1.844,0,3.259,1.307,3.259,3.627v4.074h-1.6Z" transform="translate(-394.364 -450.884)" fill="#003a59"/>
        <path id="Path_1591" data-name="Path 1591" d="M491.734,436.63v10.743H490.15V436.63Z" transform="translate(-439.568 -436.307)" fill="#003a59"/>
        <path id="Path_1592" data-name="Path 1592" d="M513.037,437.425a.983.983,0,0,1-1.967,0A.983.983,0,0,1,513.037,437.425Zm-1.782,2.2v7.609h1.584v-7.609Z" transform="translate(-456.875 -436.164)" fill="#003a59"/>
        <path id="Path_1593" data-name="Path 1593" d="M539.519,461.952v-4.058a1.96,1.96,0,0,0-2.045-2.183,2.152,2.152,0,0,0-2.121,2.274v3.965H533.77v-7.593h1.445l.092,1.107a3.293,3.293,0,0,1,2.551-1.214c1.844,0,3.259,1.307,3.259,3.627v4.074h-1.6Z" transform="translate(-475.655 -450.884)" fill="#003a59"/>
        <path id="Path_1594" data-name="Path 1594" d="M587.026,458.408a2.251,2.251,0,0,0,2.475,1.907,3.176,3.176,0,0,0,2.2-.815l1.029,1a4.527,4.527,0,0,1-3.259,1.292,3.981,3.981,0,1,1-.109-7.961c2.444,0,4.1,1.49,3.811,4.58h-6.146Zm4.627-1.338a1.978,1.978,0,0,0-2.243-1.829,2.251,2.251,0,0,0-2.352,1.829Z" transform="translate(-518.352 -450.537)" fill="#003a59"/>
        <path id="Path_1595" data-name="Path 1595" d="M662.02,465.331v-11.1h1.49l.092,1.23a3.162,3.162,0,0,1,2.675-1.383,3.746,3.746,0,0,1,3.827,3.95,3.687,3.687,0,0,1-3.827,3.95A3.12,3.12,0,0,1,663.6,460.7v4.626H662.02Zm6.5-7.3a2.39,2.39,0,1,0-4.78,0,2.344,2.344,0,0,0,2.383,2.413A2.32,2.32,0,0,0,668.522,458.03Z" transform="translate(-581.757 -450.743)" fill="#003a59"/>
        <path id="Path_1596" data-name="Path 1596" d="M720.564,436.63v10.743H718.98V436.63Z" transform="translate(-628.88 -436.307)" fill="#003a59"/>
        <path id="Path_1597" data-name="Path 1597" d="M744.839,454.168h1.537v7.578H744.87l-.078-1.23a3,3,0,0,1-2.613,1.43A3.973,3.973,0,0,1,742.21,454a2.927,2.927,0,0,1,2.582,1.368Zm-4.965,3.78a2.389,2.389,0,0,0,2.459,2.521c3.274,0,3.274-5.025,0-5.025A2.384,2.384,0,0,0,739.874,457.948Z" transform="translate(-644.855 -450.677)" fill="#003a59"/>
        <path id="Path_1598" data-name="Path 1598" d="M797.068,442.33v2.2h2.214V445.9h-2.229v3.613c0,.8.354,1.245,1.091,1.245a2.287,2.287,0,0,0,.969-.261l.461,1.352a3.606,3.606,0,0,1-1.521.339c-1.644.047-2.582-.891-2.582-2.675V445.9H794.01v-1.368h1.461V442.5Z" transform="translate(-690.953 -441.023)" fill="#003a59"/>
        <path id="Path_1599" data-name="Path 1599" d="M831.5,446.573v-6.087H830.05v-1.4H831.5v-.553a2.612,2.612,0,0,1,2.736-2.874,3.346,3.346,0,0,1,1.86.6l-.615,1.183a2.052,2.052,0,0,0-1.154-.4c-.722,0-1.23.477-1.23,1.49v.553h2.29v1.4h-2.29v6.087Z" transform="translate(-720.769 -435.505)" fill="#003a59"/>
        <path id="Path_1600" data-name="Path 1600" d="M872.87,458.03a3.92,3.92,0,1,1-3.936-3.95A3.816,3.816,0,0,1,872.87,458.03Zm-6.257,0a2.332,2.332,0,1,0,4.658,0,2.381,2.381,0,0,0-2.337-2.49A2.332,2.332,0,0,0,866.614,458.03Z" transform="translate(-749.708 -450.744)" fill="#003a59"/>
        <path id="Path_1601" data-name="Path 1601" d="M921.6,454.168l.107,1A2.33,2.33,0,0,1,923.941,454a2.9,2.9,0,0,1,1.875.646l-.722,1.383a2.076,2.076,0,0,0-3.381,1.615v4.1H920.13v-7.578H921.6Z" transform="translate(-795.292 -450.677)" fill="#003a59"/>
        <path id="Path_1602" data-name="Path 1602" d="M964.471,461.878v-4.165a1.848,1.848,0,0,0-1.768-2.06,1.893,1.893,0,0,0-1.829,2.06v4.165H959.29v-7.593h1.475l.107,1.014a2.3,2.3,0,0,1,2.121-1.138,2.386,2.386,0,0,1,2.383,1.521,2.764,2.764,0,0,1,2.6-1.506c2.09,0,3.212,1.321,3.212,3.5v4.2h-1.6v-4.2c0-1.123-.553-2.014-1.675-2.014a1.891,1.891,0,0,0-1.844,2.045v4.165h-1.6Z" transform="translate(-827.69 -450.81)" fill="#003a59"/>
        <path id="Path_1603" data-name="Path 1603" d="M1058.285,446.573v-6.087h-1.445v-1.4h1.445v-.553a2.612,2.612,0,0,1,2.735-2.874,3.347,3.347,0,0,1,1.86.6l-.615,1.183a2.052,2.052,0,0,0-1.154-.4c-.722,0-1.23.477-1.23,1.49v.553h2.29v1.4h-2.29v6.087Z" transform="translate(-908.393 -435.505)" fill="#003a59"/>
        <path id="Path_1604" data-name="Path 1604" d="M1099.65,458.03a3.92,3.92,0,1,1-3.936-3.95A3.815,3.815,0,0,1,1099.65,458.03Zm-6.255,0a2.332,2.332,0,1,0,4.658,0,2.381,2.381,0,0,0-2.337-2.49A2.331,2.331,0,0,0,1093.4,458.03Z" transform="translate(-937.324 -450.744)" fill="#003a59"/>
        <path id="Path_1605" data-name="Path 1605" d="M1148.395,454.168l.107,1a2.33,2.33,0,0,1,2.229-1.167,2.9,2.9,0,0,1,1.875.646l-.722,1.383a2.076,2.076,0,0,0-3.381,1.615v4.1h-1.584v-7.578h1.475Z" transform="translate(-982.917 -450.677)" fill="#003a59"/>
        <path id="Path_1606" data-name="Path 1606" d="M1210.31,460.678a3.9,3.9,0,0,1-2.874,1.183,3.981,3.981,0,1,1,0-7.961,3.675,3.675,0,0,1,2.735,1.123l-1.014,1.06a2.458,2.458,0,0,0-1.706-.677,2.353,2.353,0,0,0-2.428,2.475,2.3,2.3,0,0,0,2.412,2.444,2.455,2.455,0,0,0,1.8-.706Z" transform="translate(-1029.676 -450.595)" fill="#003a59"/>
        <path id="Path_1607" data-name="Path 1607" d="M1255.41,458.03a3.92,3.92,0,1,1-3.936-3.95A3.816,3.816,0,0,1,1255.41,458.03Zm-6.257,0a2.332,2.332,0,1,0,4.657,0,2.381,2.381,0,0,0-2.337-2.49A2.332,2.332,0,0,0,1249.154,458.03Z" transform="translate(-1066.185 -450.744)" fill="#003a59"/>
        <path id="Path_1608" data-name="Path 1608" d="M1308.419,461.952v-4.058a1.96,1.96,0,0,0-2.045-2.183,2.152,2.152,0,0,0-2.121,2.274v3.965h-1.584v-7.593h1.446l.091,1.107a3.293,3.293,0,0,1,2.551-1.214c1.844,0,3.259,1.307,3.259,3.627v4.074h-1.6Z" transform="translate(-1111.77 -450.884)" fill="#003a59"/>
        <path id="Path_1609" data-name="Path 1609" d="M1362.709,461.952v-4.058a1.96,1.96,0,0,0-2.045-2.183,2.152,2.152,0,0,0-2.121,2.274v3.965h-1.584v-7.593h1.445l.092,1.107a3.293,3.293,0,0,1,2.551-1.214c1.844,0,3.259,1.307,3.259,3.627v4.074h-1.6Z" transform="translate(-1156.684 -450.884)" fill="#003a59"/>
        <path id="Path_1610" data-name="Path 1610" d="M1410.226,458.408a2.251,2.251,0,0,0,2.475,1.907,3.176,3.176,0,0,0,2.2-.815l1.029,1a4.527,4.527,0,0,1-3.259,1.292,3.981,3.981,0,1,1-.109-7.961c2.444,0,4.1,1.49,3.811,4.58h-6.146Zm4.626-1.338a1.978,1.978,0,0,0-2.243-1.829,2.251,2.251,0,0,0-2.352,1.829Z" transform="translate(-1199.39 -450.537)" fill="#003a59"/>
        <path id="Path_1611" data-name="Path 1611" d="M1467.26,460.678a3.9,3.9,0,0,1-2.874,1.183,3.981,3.981,0,1,1,0-7.961,3.675,3.675,0,0,1,2.735,1.123l-1.014,1.06a2.458,2.458,0,0,0-1.706-.677,2.353,2.353,0,0,0-2.428,2.475,2.3,2.3,0,0,0,2.413,2.444,2.455,2.455,0,0,0,1.8-.706Z" transform="translate(-1242.252 -450.595)" fill="#003a59"/>
        <path id="Path_1612" data-name="Path 1612" d="M1507.858,442.33v2.2h2.214V445.9h-2.229v3.613c0,.8.354,1.245,1.091,1.245a2.286,2.286,0,0,0,.969-.261l.461,1.352a3.606,3.606,0,0,1-1.521.339c-1.644.047-2.582-.891-2.582-2.675V445.9H1504.8v-1.368h1.461V442.5Z" transform="translate(-1278.993 -441.023)" fill="#003a59"/>
        <path id="Path_1613" data-name="Path 1613" d="M1545.477,437.425a.984.984,0,0,1-1.967,0A.984.984,0,0,1,1545.477,437.425Zm-1.782,2.2v7.609h1.584v-7.609Z" transform="translate(-1311.018 -436.164)" fill="#003a59"/>
        <path id="Path_1614" data-name="Path 1614" d="M1571.959,461.952v-4.058a1.96,1.96,0,0,0-2.045-2.183,2.152,2.152,0,0,0-2.121,2.274v3.965h-1.584v-7.593h1.446l.091,1.107a3.293,3.293,0,0,1,2.551-1.214c1.844,0,3.259,1.307,3.259,3.627v4.074h-1.6Z" transform="translate(-1329.798 -450.884)" fill="#003a59"/>
        <path id="Path_1615" data-name="Path 1615" d="M1624.808,450.79l1.154.891-.907,1.06a3.347,3.347,0,0,1,.922,2.352,3,3,0,0,1-2.014,2.951,2.553,2.553,0,0,1,2,2.475c0,2.06-2.029,3.09-4.058,3.09-2.475,0-4.058-1.261-4-3.366h1.584c-.047,1.183,1.154,1.813,2.412,1.829,1.167,0,2.412-.477,2.412-1.552,0-1.06-.969-1.644-2.383-1.644-2.459,0-4.1-1.414-4.1-3.782a3.816,3.816,0,0,1,4.1-3.811,3.972,3.972,0,0,1,2.045.523Zm-5.379,4.3a2.487,2.487,0,1,0,2.506-2.337A2.293,2.293,0,0,0,1619.429,455.094Z" transform="translate(-1372.503 -448.022)" fill="#003a59"/>
        <path id="Path_1616" data-name="Path 1616" d="M1701.141,437.451a3.272,3.272,0,0,0-2.659-1.2c-1.445,0-2.49.6-2.49,1.629,0,1.045,1.2,1.337,2.613,1.537,2.214.307,4.319.922,4.319,3.335-.016,2.413-2.214,3.319-4.457,3.319-2.06,0-3.642-.63-4.626-2.444l1.292-.86a3.725,3.725,0,0,0,3.35,1.768c1.292,0,2.72-.43,2.72-1.782,0-1.167-1.245-1.568-2.751-1.768-2.136-.292-4.165-.831-4.165-3.136-.016-2.229,2.214-3.09,4.15-3.09a4.382,4.382,0,0,1,4.012,1.813Z" transform="translate(-1435.387 -434.76)" fill="#003a59"/>
        <path id="Path_1617" data-name="Path 1617" d="M1767.012,439.144l-3.658,5.088h-.37l-3.613-5.088V447.4h-1.722V436.64h2l3.551,5.041,3.535-5.041h2V447.4h-1.722v-8.255Z" transform="translate(-1488.177 -436.315)" fill="#003a59"/>
        <path id="Path_1618" data-name="Path 1618" d="M1845.437,447.309h-7.947V436.55h7.9v1.675h-6.179v2.9h5.934v1.6h-5.934v2.889h6.226Z" transform="translate(-1554.229 -436.241)" fill="#003a59"/>
        <path id="Path_1619" data-name="Path 1619" d="M1896.683,455.878a2.723,2.723,0,0,0-2-.706c-.969-.016-1.615.307-1.615.907.016.63.677.876,1.644.969,1.4.123,3.228.43,3.212,2.383-.016,1.414-1.261,2.4-3.228,2.4a4.323,4.323,0,0,1-3.459-1.4l.831-1.123a3.7,3.7,0,0,0,2.66,1.123c.753,0,1.6-.276,1.615-.984.016-.677-.63-.938-1.753-1.045-1.43-.138-3.074-.6-3.089-2.274,0-1.675,1.737-2.305,3.152-2.305a4.05,4.05,0,0,1,2.92,1.014Z" transform="translate(-1598.697 -450.528)" fill="#003a59"/>
      </g>
    </g>
  </g>
</svg>
