<svg xmlns="http://www.w3.org/2000/svg" width="64" height="64" viewBox="0 0 64 64">
  <g id="Group_2332" data-name="Group 2332" transform="translate(-310 -160)">
    <rect id="Rectangle_310" data-name="Rectangle 310" width="64" height="64" transform="translate(310 160)" fill="#fff"/>
    <g id="Group_2272" data-name="Group 2272" transform="translate(319.999 170.001)">
      <g id="Group_2256" data-name="Group 2256" transform="translate(0 33.935) rotate(-45)">
        <path id="Path_1690" data-name="Path 1690" d="M0,7.952A7.947,7.947,0,0,1,13.585,2.346a7.959,7.959,0,0,1,2.349,5.642,7.869,7.869,0,0,1-2.318,5.626A7.994,7.994,0,0,1,0,7.952Z" transform="translate(0 0)" fill="#ec4d23"/>
      </g>
      <g id="Group_2257" data-name="Group 2257" transform="translate(22.782 11.265) rotate(-45)">
        <path id="Path_1691" data-name="Path 1691" d="M0,7.952A7.947,7.947,0,0,1,13.585,2.346a7.959,7.959,0,0,1,2.349,5.642,7.869,7.869,0,0,1-2.318,5.626A7.994,7.994,0,0,1,0,7.952Z" transform="translate(0 0)" fill="#ec4d23"/>
      </g>
      <path id="Path_1692" data-name="Path 1692" d="M2.317,2.322a7.97,7.97,0,0,1,11.271.025A7.933,7.933,0,0,1,15.933,7.98a7.8,7.8,0,0,1-.145,1.452c-.027.14-.061.285-.1.433a8.951,8.951,0,0,1-.286.936c-.06.159-.117.316-.185.467a7.338,7.338,0,0,1-.479.875s-.14.255-.159.287L13.4,13.794c-.157.143-.34.283-.531.43l-.106.081c-.069.057-.126.1-.179.155-.022.019-.043.04-.065.058l-.045.035-.059.047c-.1.091-.193.182-.286.275A11.758,11.758,0,0,0,12.4,31.488l.271.256.052.006c.01.008.02.018.031.027.064.058.13.116.2.172l.2.16c.111.088.222.173.325.269l1.135,1.31c.023.037.13.231.166.287a8.528,8.528,0,0,1,.49.9c.074.154.129.307.189.466a9.519,9.519,0,0,1,.294.942l.016.065c.031.118.062.233.083.356a7.9,7.9,0,0,1-7.79,9.41A7.9,7.9,0,0,1,.221,36.681c.019-.108.044-.205.068-.3l.037-.16a9.255,9.255,0,0,1,.28-.9c.062-.163.119-.318.189-.472a7.879,7.879,0,0,1,.484-.89c.041-.068.072-.126.1-.183.023-.038.042-.077.065-.113l1.163-1.336c.191-.175.415-.346.632-.512.073-.058.126-.106.179-.153A.766.766,0,0,1,3.48,31.6l.118-.1c.1-.089.191-.18.283-.272a11.581,11.581,0,0,0,3.3-8.362,11.654,11.654,0,0,0-3.577-8.252l-.065-.061-.074-.05a2.208,2.208,0,0,1-.212-.174c-.071-.063-.141-.122-.212-.179s-.134-.109-.207-.169c-.107-.084-.215-.169-.312-.262L1.378,12.4c-.02-.034-.139-.249-.139-.249a8.1,8.1,0,0,1-.5-.915C.672,11.093.618,10.95.561,10.8l-.02-.052A8.778,8.778,0,0,1,.259,9.84c-.039-.153-.077-.3-.107-.454A8.084,8.084,0,0,1,0,7.935,7.851,7.851,0,0,1,2.317,2.322Z" transform="translate(0.695 11.954) rotate(-45)" fill="#34433c"/>
    </g>
  </g>
</svg>
